<svg xmlns="http://www.w3.org/2000/svg" width="18.015" height="18.014" viewBox="0 0 18.015 18.014"><path d="M6.751,7.5H8L9.884,15.98a2.694,2.694,0,0,0-1.532,2.491,2.566,2.566,0,0,0,2.425,2.681h9.953a.751.751,0,1,0,0-1.5H10.776a1.091,1.091,0,0,1-.924-1.18,1.091,1.091,0,0,1,.924-1.181h9.953a.751.751,0,0,0,.706-.5L23.97,9.76a.751.751,0,0,0-.706-1H9.82L9.34,6.588A.75.75,0,0,0,8.607,6H6.751a.751.751,0,0,0,0,1.5ZM22.2,10.256,20.2,15.79H11.379l-1.226-5.533H22.2Z" transform="translate(-6 -6)"/><path d="M19.1,50a.751.751,0,1,0,0,1.5h.953a.751.751,0,1,0,0-1.5Z" transform="translate(-13.712 -33.487)"/><path d="M37.547,50a.751.751,0,0,0,0,1.5H38.5a.751.751,0,1,0,0-1.5Z" transform="translate(-25.239 -33.487)"/></svg>